# xmcd
#
# Track frame offsets:
# 150
# 17825
# 34218
# 50734
# 69878
# 84908
# 101359
# 117577
# 137120
# 150214
# 167076
#
# Disc length: 2507 seconds
#
#
# Revision: 0
# Processed by: cddbd v1.5.1PL2 Copyright (c) Steve Scherf et al.
# Submitted via: FreeRIP 2.945 
#
DISCID=8509c90b
DTITLE=Hush - a lifetime
DYEAR=2005
DGENRE=Country
TTITLE0=If you go breaking my heart
TTITLE1=Say a little prayer
TTITLE2=If I was
TTITLE3=A lifetime
TTITLE4=Sometimes
TTITLE5=Lovestruck
TTITLE6=That don´t make it right
TTITLE7=For how long
TTITLE8=To a better place
TTITLE9=Come to my rescue
TTITLE10=Drown
EXTD=
EXTT0=
EXTT1=
EXTT2=
EXTT3=
EXTT4=
EXTT5=
EXTT6=
EXTT7=
EXTT8=
EXTT9=
EXTT10=
PLAYORDER=
